<svg id="Layer_12" data-name="Layer 12" xmlns="http://www.w3.org/2000/svg" viewBox="0 0 1062.79 1062.79"><defs><style>.cls-1{fill:#fff;}.cls-2{fill:#96a4d3;}.cls-3{fill:#a98f76;}.cls-4{fill:#242948;}</style></defs><circle class="cls-1" cx="531.4" cy="531.4" r="531.4"/><path class="cls-2" d="M933.78,523.23c0-208-168.64-376.66-376.66-376.66A375.39,375.39,0,0,0,294.81,252.94l64.34,64.34A290.32,290.32,0,0,1,565.1,232C726,232,856.36,362.37,856.36,523.23a290.32,290.32,0,0,1-85.31,205.95l56.35,56.35A375.4,375.4,0,0,0,933.78,523.23Z" transform="translate(-8.6 -8.6)"/><rect class="cls-3" x="484.48" y="438.01" width="74.07" height="461.12"/><rect class="cls-3" x="484.48" y="171.26" width="74.07" height="212.11"/><rect class="cls-3" x="493.09" y="161.13" width="74.07" height="535.76" transform="translate(950.53 -109.71) rotate(90)"/><path class="cls-4" d="M827.4,785.53A375.49,375.49,0,0,1,557.12,899.9c-208,0-376.67-168.64-376.67-376.67A375.56,375.56,0,0,1,294.81,252.94l-73.08-73.07C132.51,267,77.1,388.65,77.1,523.23c0,265.11,214.91,480,480,480,134.58,0,256.2-55.41,343.36-144.64Z" transform="translate(-8.6 -8.6)"/></svg>