<svg xmlns="http://www.w3.org/2000/svg" viewBox="0 0 746.1 809.75"><defs><style>.cls-1{fill:#9eaaaf;}.cls-2{fill:#041a28;}.cls-3{fill:#fff;}</style></defs><g id="Layer_3" data-name="Layer 3"><path class="cls-1" d="M401.92,395.71H211.15a1.91,1.91,0,0,0-1.92,1.91V528.37h13.63V409.78h181V397.62A1.91,1.91,0,0,0,401.92,395.71Z" transform="translate(-139.44 -106.31)"/><path class="cls-1" d="M807.7,395.71H616.92a1.9,1.9,0,0,0-1.91,1.91V528.37h13.63V409.78h181V397.62A1.91,1.91,0,0,0,807.7,395.71Z" transform="translate(-139.44 -106.31)"/><path d="M413.12,372.21H222.05v-17H410.66l94.46-94.45a11.07,11.07,0,0,1,15.64,0l93.86,93.86H800.93v17H612.16a11,11,0,0,1-7.81-3.23L512.94,277l-92,92A11,11,0,0,1,413.12,372.21Z" transform="translate(-139.44 -106.31)"/><path d="M805.53,537.77H619.08a6.93,6.93,0,0,1-6.91-6.92V397.62a6.92,6.92,0,0,1,6.91-6.91H805.53a6.92,6.92,0,0,1,6.91,6.91V530.85A6.93,6.93,0,0,1,805.53,537.77Zm-183.36-10H802.44V400.71H622.17Z" transform="translate(-139.44 -106.31)"/><path d="M401.92,537.77H211.15a6.93,6.93,0,0,1-6.92-6.92V397.62a6.92,6.92,0,0,1,6.92-6.91H401.92a6.93,6.93,0,0,1,6.92,6.91V530.85A6.94,6.94,0,0,1,401.92,537.77Zm-187.69-10H398.84V400.71H214.23Z" transform="translate(-139.44 -106.31)"/><path d="M6.52,416.44h732.1a0,0,0,0,1,0,0v0A18.51,18.51,0,0,1,720.1,435H25A18.51,18.51,0,0,1,6.52,416.44v0a0,0,0,0,1,0,0Z"/><path class="cls-1" d="M420.94,369a11,11,0,0,1-7.82,3.24H222.05V355.52L209.11,383H427.6l95.7-95.7L512.94,277Z" transform="translate(-139.44 -106.31)"/><polygon class="cls-2" points="82.61 248.9 82.61 249.21 83.43 248.9 82.61 248.9"/><path d="M614.62,354.62l-82.46-82.46,1.33,11.89-6.74,6.74,77.6,77.6a11,11,0,0,0,7.81,3.23H800.93v-17Z" transform="translate(-139.44 -106.31)"/><rect x="611.74" y="232.77" width="50.87" height="15.12" rx="7.56" transform="translate(1118.23 -146.59) rotate(135)"/><rect x="669.63" y="290.66" width="50.87" height="15.12" rx="7.56" transform="translate(1310.48 144.66) rotate(153.2)"/><rect x="322.63" y="250.29" width="50.87" height="15.12" rx="7.56" transform="translate(44.32 -249.26) rotate(31.18)"/><rect x="291.16" y="327.36" width="50.87" height="15.12" rx="7.56" transform="translate(-67.14 -162.18) rotate(11.38)"/><rect x="334.59" y="310" width="37.16" height="10.21" rx="5.11" transform="translate(-18.12 -203.84) rotate(18.93)"/><rect x="461.53" y="198.72" width="33.25" height="10.21" rx="5.11" transform="translate(483.01 -401.84) rotate(83.03)"/><rect x="555.73" y="205.91" width="37.16" height="10.21" rx="5.11" transform="translate(869.24 -326.2) rotate(115.06)"/><rect x="687.48" y="335.29" width="37.16" height="10.21" rx="5.11" transform="translate(1321.3 445.9) rotate(169.94)"/><rect x="397.68" y="230.95" width="21.38" height="5.11" rx="2.55" transform="translate(367.78 587.11) rotate(-131.89)"/><rect x="444.64" y="205.05" width="21.38" height="5.11" rx="2.55" transform="translate(270.89 599.69) rotate(-109.35)"/><rect x="381.01" y="263.28" width="21.38" height="5.11" rx="2.55" transform="translate(394.33 611.09) rotate(-141.63)"/><rect x="316.63" y="279.42" width="21.38" height="5.11" rx="2.55" transform="translate(347.05 577.31) rotate(-152.36)"/><rect x="640.85" y="266.12" width="21.38" height="5.11" rx="2.55" transform="translate(1187.84 -37.82) rotate(141.09)"/><rect x="661.46" y="266.12" width="21.38" height="5.11" rx="2.55" transform="translate(1224.48 -50.76) rotate(141.09)"/><rect x="659.11" y="332.37" width="21.38" height="5.11" rx="2.55" transform="translate(1274.78 310.11) rotate(159.68)"/><rect x="500.03" y="197.86" width="21.38" height="5.11" rx="2.55" transform="translate(571.7 -416.62) rotate(90)"/><circle cx="213.73" cy="187.96" r="3.95"/><path d="M655.54,364.94h-8c0-93.12-70.26-135.54-135.54-135.54S376.46,271.82,376.46,364.94h-8c0-44.28,15.54-81.5,45-107.64,26-23.15,61-35.9,98.59-35.9s72.55,12.75,98.59,35.9C640,283.44,655.54,320.66,655.54,364.94Z" transform="translate(-139.44 -106.31)"/><path d="M510.72,429.53,414.15,532.08V835.4l97.82,18,96.86-16.32V533.71ZM570.85,511q-10.3-10.56-20.54-21.17c-6.84-7.07-13.6-14.2-20.4-21.31L510.72,448.3l-19.19,20.26c-6.79,7.1-13.56,14.24-20.4,21.3S457.46,504,450.6,511s-13.77,14-20.76,21c6.5-7.39,13.13-14.65,19.69-22s13.24-14.55,19.9-21.78,13.36-14.43,20-21.64l20.16-21.53,1.09-1.16,1.09,1.16L532,466.62c6.68,7.21,13.4,14.39,20,21.64s13.29,14.49,19.9,21.77,13.19,14.59,19.68,22C584.61,525.08,577.77,518,570.85,511Z" transform="translate(-139.44 -106.31)"/><polygon class="cls-3" points="370.2 340.83 371.29 341.99 372.38 340.83 370.2 340.83"/><path d="M512.17,318.29a45.42,45.42,0,1,0,45.42,45.42A45.47,45.47,0,0,0,512.17,318.29Zm26.54,28.64H518.27v-14A31.51,31.51,0,0,1,538.71,346.93Zm-34-13.74v13.74H485.62A31.61,31.61,0,0,1,504.71,333.19Zm-24,30.52a31.13,31.13,0,0,1,.16-3.22h23.8v33.74A31.46,31.46,0,0,1,480.75,363.71Zm37.52,30.82v-34h25.15a31.12,31.12,0,0,1,.17,3.22A31.47,31.47,0,0,1,518.27,394.53Z" transform="translate(-139.44 -106.31)"/></g><g id="Layer_2" data-name="Layer 2"><path d="M784,622.4h64.84a0,0,0,0,1,0,0v11.45a0,0,0,0,1,0,0h-76.3a0,0,0,0,1,0,0v0A11.45,11.45,0,0,1,784,622.4Z" transform="translate(1299.35 -288.85) rotate(90)"/><path d="M727.13,647.94H843.06a0,0,0,0,1,0,0V659.4a0,0,0,0,1,0,0H715.67a0,0,0,0,1,0,0v0A11.45,11.45,0,0,1,727.13,647.94Z" transform="translate(1293.6 -232.01) rotate(90)"/><path d="M676.47,667.3H831.13a0,0,0,0,1,0,0v11.45a0,0,0,0,1,0,0H665a0,0,0,0,1,0,0v0A11.45,11.45,0,0,1,676.47,667.3Z" transform="translate(1281.67 -181.36) rotate(90)"/><path d="M631.41,681.07H813.6a0,0,0,0,1,0,0v11.45a0,0,0,0,1,0,0H620a0,0,0,0,1,0,0v0A11.45,11.45,0,0,1,631.41,681.07Z" transform="translate(1264.14 -136.29) rotate(90)"/><path d="M590.06,691.13h202.3a0,0,0,0,1,0,0v11.45a0,0,0,0,1,0,0H578.61a0,0,0,0,1,0,0v0A11.45,11.45,0,0,1,590.06,691.13Z" transform="translate(1242.9 -94.94) rotate(90)"/><path d="M549.66,700.24H770.18a0,0,0,0,1,0,0v11.45a0,0,0,0,1,0,0h-232a0,0,0,0,1,0,0v0A11.45,11.45,0,0,1,549.66,700.24Z" transform="translate(1220.72 -54.54) rotate(90)"/><path d="M512.16,706.44H745.09a0,0,0,0,1,0,0v11.45a0,0,0,0,1,0,0H500.71a0,0,0,0,1,0,0v0A11.45,11.45,0,0,1,512.16,706.44Z" transform="translate(1195.63 -17.04) rotate(90)"/><path class="cls-3" d="M475.67,711.64H719a0,0,0,0,1,0,0v11.45a0,0,0,0,1,0,0H464.21a0,0,0,0,1,0,0v0A11.45,11.45,0,0,1,475.67,711.64Z" transform="translate(1169.53 19.45) rotate(90)"/><path class="cls-3" d="M440.05,716H692a0,0,0,0,1,0,0v11.45a0,0,0,0,1,0,0H428.6a0,0,0,0,1,0,0v0A11.45,11.45,0,0,1,440.05,716Z" transform="translate(1142.56 55.07) rotate(90)"/><path class="cls-3" d="M408.76,716h252a0,0,0,0,1,0,0v11.45a0,0,0,0,1,0,0H397.3a0,0,0,0,1,0,0v0A11.45,11.45,0,0,1,408.76,716Z" transform="translate(1111.26 86.36) rotate(90)"/><path class="cls-3" d="M377.46,716h252a0,0,0,0,1,0,0v11.45a0,0,0,0,1,0,0H366a0,0,0,0,1,0,0v0A11.45,11.45,0,0,1,377.46,716Z" transform="translate(1079.97 117.66) rotate(90)"/><path class="cls-3" d="M346.17,716h252a0,0,0,0,1,0,0v11.45a0,0,0,0,1,0,0H334.71a0,0,0,0,1,0,0v0A11.45,11.45,0,0,1,346.17,716Z" transform="translate(1048.68 148.95) rotate(90)"/><path class="cls-3" d="M319.2,711.64H562.52a0,0,0,0,1,0,0v11.45a0,0,0,0,1,0,0H307.74a0,0,0,0,1,0,0v0A11.45,11.45,0,0,1,319.2,711.64Z" transform="translate(1013.06 175.92) rotate(90)"/><path d="M292.58,707h234a0,0,0,0,1,0,0v11.45a0,0,0,0,1,0,0H281.12a0,0,0,0,1,0,0v0A11.45,11.45,0,0,1,292.58,707Z" transform="translate(977.09 202.54) rotate(90)"/><path d="M267.63,700.61H488.91a0,0,0,0,1,0,0v11.45a0,0,0,0,1,0,0H256.18a0,0,0,0,1,0,0v0A11.45,11.45,0,0,1,267.63,700.61Z" transform="translate(939.45 227.49) rotate(90)"/><path d="M245.82,691.13h202.3a0,0,0,0,1,0,0v11.45a0,0,0,0,1,0,0H234.37a0,0,0,0,1,0,0v0A11.45,11.45,0,0,1,245.82,691.13Z" transform="translate(898.66 249.29) rotate(90)"/><path d="M223.58,682.07h184.2a0,0,0,0,1,0,0v11.45a0,0,0,0,1,0,0H212.13a0,0,0,0,1,0,0v0A11.45,11.45,0,0,1,223.58,682.07Z" transform="translate(858.32 271.54) rotate(90)"/><path d="M206.49,667.88h155.8a0,0,0,0,1,0,0v11.45a0,0,0,0,1,0,0H195a0,0,0,0,1,0,0v0A11.45,11.45,0,0,1,206.49,667.88Z" transform="translate(812.83 288.63) rotate(90)"/><path d="M193,650.1H313.22a0,0,0,0,1,0,0v11.45a0,0,0,0,1,0,0H181.51a0,0,0,0,1,0,0v0A11.45,11.45,0,0,1,193,650.1Z" transform="translate(763.76 302.15) rotate(90)"/><path d="M186.65,625.12h70.29a0,0,0,0,1,0,0v11.45a0,0,0,0,1,0,0H175.2a0,0,0,0,1,0,0v0A11.45,11.45,0,0,1,186.65,625.12Z" transform="translate(707.48 308.46) rotate(90)"/><path d="M179.2,327.37l9.88,6c-4.87,8-9.47,16.34-13.71,24.73l-10.31-5.25C169.43,344.21,174.17,335.65,179.2,327.37Z" transform="translate(-139.44 -106.31)"/><path d="M179.81,266.78l52.7,41.7c-5,6.35-7.37,9.63-12,16.36l-55-38.62C171.05,278.23,173.91,274.34,179.81,266.78Z" transform="translate(-139.44 -106.31)"/><path d="M239.37,238c-6.34,6-9.45,9.08-15.51,15.48l-4.41-4.22q-4.17-4-5.67-4.53c-1-.35-2.06.06-3.17,1.26a3.1,3.1,0,0,0-1,3c.26.93,1.66,2.57,4.18,4.9l23.69,21.9q3.33,3.08,4.84,3.55a2.71,2.71,0,0,0,2.88-1,3.08,3.08,0,0,0,.89-3.32c-.41-1.13-1.75-2.78-4-5l-5.75-5.53c-1.18,1.24-1.76,1.86-2.93,3.11l-7.44-7c6.93-7.46,10.5-11,17.81-17.94L268.4,269c-3.56,3.36-5.32,5.08-8.79,8.58-1.87-.84-2.81-1.26-4.7-2.09a13.65,13.65,0,0,1-.19,6.94,16.68,16.68,0,0,1-3.8,6.37,22.23,22.23,0,0,1-7.8,5.57,18.35,18.35,0,0,1-8.36,1.68,15.64,15.64,0,0,1-6.95-2,67.51,67.51,0,0,1-8.39-6.16L204,275.23q-7.43-6.14-9.91-10c-1.65-2.56-2-6.33-1-11.28s3.93-10.11,8.7-15.25,9.44-8.39,14.09-10.05,8.46-1.82,11.41-.64,6.29,3.82,10.06,7.84Z" transform="translate(-139.44 -106.31)"/><path d="M229,213.84c4.85-4.37,7.31-6.51,12.29-10.66,8.3-6.92,14.32-11,17.74-12.79a14.91,14.91,0,0,1,10.3-1.47c3.44.76,6.78,3.53,10.07,8.23q4.5,6.43,4.13,10c-.25,2.38-2.12,5-5.58,8.07,3.84-1.8,6.77-2.48,8.76-2.12a9.66,9.66,0,0,1,4.43,1.72q1.47,1.19,6.13,7.86l10.17,14.54c-5.8,4.06-8.65,6.17-14.28,10.55-5.48-7.07-8.22-10.6-13.71-17.66q-3.32-4.28-4.9-4.66c-1.06-.26-2.72.49-5,2.29q9.5,11.83,19,23.65c-6,4.83-8.93,7.34-14.7,12.54Zm24.67-5.92c3.74,4.66,5.62,7,9.36,11.66a11.43,11.43,0,0,0,3.46-3.79q.64-1.53-2.08-5l-2.27-2.93q-1.95-2.52-3.71-2.42C257.3,205.47,255.71,206.3,253.71,207.92Z" transform="translate(-139.44 -106.31)"/><path d="M276.14,177.16q15.57-10.41,32.05-19.38l6.47,11.8c-5.08,2.77-7.6,4.2-12.59,7.15l6.52,11c4.53-2.68,6.82-4,11.42-6.5,2.47,4.48,3.7,6.72,6.18,11.2-4.46,2.44-6.67,3.7-11.05,6.29l7.57,12.71c5-2.93,7.45-4.34,12.49-7.06l6.43,11.82c-9.59,5.39-18.82,10.94-28.07,16.9Z" transform="translate(-139.44 -106.31)"/><path d="M339.74,142.29,358,183.35q4.1,9.22,5.06,12a9.57,9.57,0,0,1-2.89,10.56,40.29,40.29,0,0,1-8,4.85c-3.37,1.67-5,2.53-8.37,4.29l-5.55-10.36c1.08-.48,1.84-.83,2.31-1.07a5.39,5.39,0,0,0,2.49-2.32,3.36,3.36,0,0,0,.21-2.62,43.58,43.58,0,0,0-2.17-4.68l-21.48-42.16C327.57,147.77,331.6,145.87,339.74,142.29Z" transform="translate(-139.44 -106.31)"/><path d="M383.61,125.86q16,30.17,30.57,61c-7.31,2.05-10.94,3.17-18.14,5.61-2-4.44-2.94-6.65-4.91-11.09-2.61.89-3.91,1.35-6.5,2.29,1.24,4.69,1.86,7,3.13,11.72-7.24,2.65-10.82,4.08-17.93,7.13q-8.9-32.85-16.36-66C363.33,132.58,373.46,129,383.61,125.86Zm3.11,44.46c-4.26-8.46-8.35-17-12.37-25.59,1.76,9.32,3.45,18.69,5.92,27.87C382.84,171.66,384.13,171.21,386.72,170.32Z" transform="translate(-139.44 -106.31)"/><path d="M417.68,116.74q17.9-4,36.1-6.48c.74,5.33,1.12,8,1.86,13.31-5.64.77-8.45,1.2-14.05,2.16.87,5,1.31,7.52,2.19,12.54,5.08-.87,7.63-1.26,12.74-2,.71,5.06,1.07,7.59,1.79,12.65-4.95.69-7.41,1.07-12.33,1.91,1,5.82,1.52,8.73,2.54,14.55,5.56-.95,8.35-1.38,13.93-2.12.73,5.33,1.09,8,1.81,13.32-10.56,1.35-21.22,3.24-31.6,5.62Q425.18,149.49,417.68,116.74Z" transform="translate(-139.44 -106.31)"/><path d="M513.63,106.32q-5.53,33.52-9.64,67.23c-9.32.17-18.75.74-28,1.7Q467,142.31,456.53,109.9c9.2-1.19,13.81-1.66,23.05-2.36C482.91,123,486,138.38,488.31,154c.25-11.54.52-23.08,1.32-34.6.32-5,.49-7.52.84-12.54C499.73,106.39,504.36,106.29,513.63,106.32Z" transform="translate(-139.44 -106.31)"/><path d="M553.84,108.32q2.76,34,3.9,68c-7.5-.94-11.26-1.32-18.8-1.87,0-4.85-.06-7.27-.12-12.11-2.73-.19-4.09-.28-6.82-.42-.72,4.79-1.07,7.19-1.76,12-7.64-.38-11.46-.47-19.1-.44q4.79-33.66,11-67C532.69,106.63,543.34,107.27,553.84,108.32Zm-14.67,42.1c-.56-9.43-.93-18.89-1.22-28.34-2.06,9.26-4.21,18.53-5.56,27.93C535.1,150.15,536.46,150.23,539.17,150.42Z" transform="translate(-139.44 -106.31)"/><path d="M618.27,119.51l-16.83,65.05c-6.3-1.6-9.47-2.32-15.83-3.63-1-10.67-2.48-21.26-4-31.86q-2.75,15-5.48,30c-6.1-1.09-9.16-1.57-15.29-2.39q4.59-33.27,9.17-66.53c7.29,1,10.93,1.55,18.17,2.84,2.14,10.64,4.07,21.23,5.82,31.93l6.3-29.59C607.53,116.87,611.12,117.7,618.27,119.51Z" transform="translate(-139.44 -106.31)"/><path d="M665.34,161c-7.73-3.17-11.64-4.65-19.5-7.4.81-2.3,1.22-3.45,2-5.75q1.93-5.43,1.84-7c-.06-1-.82-1.82-2.28-2.32a2.85,2.85,0,0,0-3,.32c-.72.63-1.62,2.58-2.72,5.83q-5.15,15.28-10.28,30.57-1.46,4.29-1.3,5.85a2.51,2.51,0,0,0,2,2.17,2.88,2.88,0,0,0,3.23-.6c.84-.86,1.78-2.75,2.83-5.7s1.61-4.5,2.69-7.5l-3.81-1.32,3.33-9.65c9.09,3.08,13.59,4.77,22.51,8.42L649,200.24c-4.34-1.77-6.53-2.63-10.92-4.26,0-2,0-3.06.06-5.11a13.26,13.26,0,0,1-6.15,2.76,14.74,14.74,0,0,1-7-.73,19.57,19.57,0,0,1-7.71-4.67,17.17,17.17,0,0,1-4.49-6.83,16.37,16.37,0,0,1-.81-7.1,73.33,73.33,0,0,1,2.28-10.16c2.14-7.69,3.22-11.53,5.37-19.23,1.73-6.18,3.38-10.56,5-13.13s4.72-4.47,9.37-5.62,10.18-.72,16.44,1.4,10.87,4.94,14.1,8.42,4.83,6.83,4.91,10-.95,7.27-3.07,12.36Z" transform="translate(-139.44 -106.31)"/><path d="M682.75,141.49q17.06,7.39,33.4,16.29l-6.48,11.8c-5.08-2.76-7.64-4.1-12.8-6.67l-5.73,11.39c4.68,2.34,7,3.54,11.61,6l-6.13,11.23c-4.46-2.41-6.71-3.58-11.24-5.84l-6.65,13.21c5.12,2.55,7.66,3.88,12.68,6.64-2.6,4.71-3.9,7.07-6.51,11.78-9.65-5.1-19.25-9.8-29.2-14.31Q669.23,172.27,682.75,141.49Zm38.91,4.06c-8.49.52-12.69.9-21,1.87-3.88-1.9-5.83-2.82-9.75-4.61,5.29-2.53,8-3.76,13.41-6.13C711.33,140.06,714.8,141.84,721.66,145.55Z" transform="translate(-139.44 -106.31)"/><path d="M742.28,173.28q-14.58,22.6-29.18,45.21c4,2.59,6,3.92,10,6.65-3.07,4.43-4.6,6.65-7.67,11.07-8.28-5.78-17-11.25-25.77-16.21l33.44-58.37C730.86,166.07,734.71,168.4,742.28,173.28Z" transform="translate(-139.44 -106.31)"/><path d="M776.35,197.75q-20.94,26.33-41.89,52.64c-6-4.8-9.06-7.1-15.28-11.52l39-54.82C765.58,189.31,769.22,192.05,776.35,197.75Z" transform="translate(-139.44 -106.31)"/><path d="M801.18,260.86c-5.93-6.44-9-9.56-15.16-15.58l8.1-8.42q3.54-3.68,3.9-5.09c.23-1-.24-2-1.44-3.13-1.35-1.29-2.56-1.72-3.62-1.31s-2.75,1.86-5.06,4.37q-10.6,11.46-21.22,22.93-3.33,3.6-3.85,5.15c-.36,1,0,2.08,1.16,3.15s2.12,1.35,3.15.95,2.82-1.92,5.38-4.58l5.86-6.09c6,5.86,9,8.89,14.74,15.15l-1.92,1.78c-5.1,4.74-9.1,7.67-12,8.83s-6.45,1.08-10.66-.12a29.63,29.63,0,0,1-12.2-7.48c-4.12-3.93-7-7.73-8.51-11.56a14.66,14.66,0,0,1-.61-10.69c1.18-3.3,3.85-7.51,8-12.58l12.55-15.13a67.5,67.5,0,0,1,7.45-8,13.36,13.36,0,0,1,7.41-2.91,20.5,20.5,0,0,1,10.21,1.88A38.09,38.09,0,0,1,804,220c5,4.72,8.28,9.47,10,14.07s1.87,8.44.64,11.49-4.15,6.7-8.75,11Z" transform="translate(-139.44 -106.31)"/><path d="M854,279.44q-23.16,25.26-47.52,49.28c-4.69-7-7.12-10.35-12.13-16.93,3.56-3.3,5.33-5,8.88-8.27-1.82-2.37-2.74-3.55-4.6-5.87-4.06,2.65-6.09,4-10.14,6.66-5.2-6.47-7.88-9.6-13.38-15.67q28.35-18.88,57.52-36.39C840.06,261.17,847.11,270.14,854,279.44Zm-41.71,16.32c6.58-6.83,13.31-13.52,20.1-20.13-8.33,4.56-16.73,9.07-24.67,14.31C809.6,292.24,810.51,293.41,812.32,295.76Z" transform="translate(-139.44 -106.31)"/><path d="M859.27,352.86,849,358.11c-4.24-8.39-8.84-16.69-13.72-24.73l9.89-6C850.17,335.65,854.91,344.21,859.27,352.86Z" transform="translate(-139.44 -106.31)"/><path d="M152.39,590.71l-6.86,1.14c-1.52-10-2.16-15.15-3.14-25.59l6.91-.66C150.27,575.85,150.89,580.87,152.39,590.71Z" transform="translate(-139.44 -106.31)"/><path d="M170.1,653.87c-2.24-6.89-3.29-10.39-5.25-17.53l6.73-2c2-.59,3.13-1.15,3.51-1.66s.41-1.4.07-2.67c-.38-1.43-.91-2.26-1.6-2.48s-2,0-4,.51L151.5,633.1c-1.89.54-3.07,1.09-3.54,1.67s-.52,1.61-.13,3.07.9,2.22,1.6,2.47,2.1.06,4.22-.58l4.87-1.47c2,7.26,3.06,10.83,5.34,17.84l-1.48.54c-3.95,1.41-6.91,1.91-8.89,1.48s-4.16-2.18-6.49-5.33A38.13,38.13,0,0,1,141.32,640a46.75,46.75,0,0,1-1.83-14.42c.23-4,1.21-6.81,2.88-8.46s4.43-2.9,8.29-3.78l11.5-2.61a30.29,30.29,0,0,1,6.49-.93,7.93,7.93,0,0,1,4.74,2.11A19.67,19.67,0,0,1,178,618a45.53,45.53,0,0,1,3.59,9.63,43.51,43.51,0,0,1,1.76,12.83c-.17,3.58-.91,6.16-2.28,7.76s-3.82,3-7.37,4.32Z" transform="translate(-139.44 -106.31)"/><path d="M185.15,695.59l-7.29,3.66a20,20,0,0,1-6.21,2.25,8.16,8.16,0,0,1-4.9-1.29,16.51,16.51,0,0,1-5.12-4.9,40.54,40.54,0,0,1-4.42-8.33,51.34,51.34,0,0,1-3-9.76,17.55,17.55,0,0,1-.15-6.92,8.84,8.84,0,0,1,2.28-4.4,15.81,15.81,0,0,1,5.61-3.16l8-3a13.05,13.05,0,0,1,7.32-.94c2,.44,4,1.83,5.91,4.13a34.62,34.62,0,0,1,5.37,9.56,43.53,43.53,0,0,1,2.72,9.15,18.4,18.4,0,0,1,.08,6.69,9.72,9.72,0,0,1-1.78,4.16A13.49,13.49,0,0,1,185.15,695.59Zm-4.47-16.4a7,7,0,0,0,2.77-1.73,2.32,2.32,0,0,0-.12-2.07c-.38-.92-.82-1.44-1.35-1.57s-1.58.13-3.14.8l-13.79,5.93a6,6,0,0,0-2.63,1.7,2.49,2.49,0,0,0,.11,2.2c.4,1,.86,1.53,1.38,1.67a5.14,5.14,0,0,0,2.76-.68Z" transform="translate(-139.44 -106.31)"/><path d="M205.35,709.5l-2.79,1.31A10.87,10.87,0,0,1,207,713.1a16.91,16.91,0,0,1,3.63,4.46,16.08,16.08,0,0,1,2.35,6.3,6.42,6.42,0,0,1-.86,4.49,19.18,19.18,0,0,1-4.83,4.07L187.74,745.3c-3.64-5.75-5.4-8.69-8.81-14.68l19.84-11.86a14,14,0,0,0,3.43-2.47c.31-.46.2-1.16-.33-2.11s-1.14-1.47-1.79-1.44a14.09,14.09,0,0,0-4.22,1.94L176.35,726c-3.33-6.07-4.93-9.17-8-15.48l29.55-15.39C200.75,701,202.25,703.86,205.35,709.5Z" transform="translate(-139.44 -106.31)"/><path d="M239.12,759.42l-19.77,16.51a35.3,35.3,0,0,1-5.42,4,6.27,6.27,0,0,1-4.24-.1,16.88,16.88,0,0,1-6.19-3.63,47.18,47.18,0,0,1-7.27-8.18,38.11,38.11,0,0,1-6.17-11.67c-.95-3.36-.08-6,2.52-7.91,3.58,5.48,5.43,8.16,9.22,13.4-1.19.89-1.27,2-.22,3.47q1.13,1.54,2,1.62a4.44,4.44,0,0,0,2.63-1.23l2-1.54a17.4,17.4,0,0,1-4.09-2.52A18.26,18.26,0,0,1,200.8,758a19.89,19.89,0,0,1-3.31-6.74,7.54,7.54,0,0,1,.19-5,10.25,10.25,0,0,1,3.65-3.77l10-6.81c2.62-1.79,5-2.33,7.1-1.67s4.15,2.45,6.18,5.33a17.94,17.94,0,0,1,2.42,4.75,13.52,13.52,0,0,1,.64,4.83l2.66-.66C233.79,752.84,235.54,755.07,239.12,759.42Zm-16.45-6.62a6.48,6.48,0,0,0,2.08-2.1c.17-.47,0-1.07-.56-1.82a2.25,2.25,0,0,0-1.7-1.1,4.83,4.83,0,0,0-2.6,1.24l-9,6.7a6.34,6.34,0,0,0-2.08,2.1,2.14,2.14,0,0,0,.56,1.9q1,1.31,1.89,1.2a8.45,8.45,0,0,0,3.2-1.83Z" transform="translate(-139.44 -106.31)"/><path d="M252.6,774.78,249,777.35a11.9,11.9,0,0,1,10.19,3.38L250.78,789a20.07,20.07,0,0,0-4.88-4,3.8,3.8,0,0,0-3.22-.34,25.21,25.21,0,0,0-4.85,3.91l-9.64,9c-4.48-4.79-6.67-7.25-11-12.28l25.35-21.82C246.5,768.16,248.51,770.4,252.6,774.78Z" transform="translate(-139.44 -106.31)"/><path d="M275.11,819.22c-6.24-5-9.3-7.63-15.26-13l-4.9,5.33a5.36,5.36,0,0,0-1.59,2.5,2.39,2.39,0,0,0,1,1.81,2.85,2.85,0,0,0,2.41,1,6.37,6.37,0,0,0,2.7-2.1l2.93-3.29c4.45,3.9,6.72,5.8,11.31,9.5l-1.57,1.9a14.41,14.41,0,0,1-3.5,3.3,9.1,9.1,0,0,1-4.49.92,14.59,14.59,0,0,1-6.26-1.53,31.49,31.49,0,0,1-7.26-5.06,35.63,35.63,0,0,1-6.07-6.82,15.82,15.82,0,0,1-2.65-6.07,8.71,8.71,0,0,1,.36-4.65,15,15,0,0,1,3.43-4.61l6.89-6.9a12.11,12.11,0,0,1,6.14-3.66,11.36,11.36,0,0,1,6.82,1.19,30.76,30.76,0,0,1,7.57,5.14,30.24,30.24,0,0,1,6.68,8,11.43,11.43,0,0,1,1.63,6.93,14.45,14.45,0,0,1-3.52,6.86C276.8,817.16,276.24,817.85,275.11,819.22Zm-8.25-14.06,1.64-1.82a8.69,8.69,0,0,0,1.93-2.77,1.74,1.74,0,0,0-.75-1.68c-.78-.69-1.4-1-1.88-.82a9.43,9.43,0,0,0-2.62,2.31l-1.65,1.8Z" transform="translate(-139.44 -106.31)"/><path d="M317.18,828l-14.13,21.47a36.44,36.44,0,0,1-4,5.42,6.55,6.55,0,0,1-4.05,1.24,16.56,16.56,0,0,1-6.87-1.4,45,45,0,0,1-9.16-5.21,34.9,34.9,0,0,1-9.07-8.71,6.43,6.43,0,0,1,.2-8c4.9,3.83,7.39,5.69,12.43,9.29-.88,1.19-.63,2.28.75,3.25a3.22,3.22,0,0,0,2.39.84c.59-.14,1.3-.8,2.14-2l1.47-2.05a16.94,16.94,0,0,1-8.77-3.3,18.19,18.19,0,0,1-5-5.1,6.92,6.92,0,0,1-1.19-4.59,10.4,10.4,0,0,1,2.41-4.62l7.61-9.46c2-2.47,4.07-3.73,6.25-3.81s4.6.89,7.31,2.88a16,16,0,0,1,3.62,3.58,12.14,12.14,0,0,1,1.94,4.23l2.34-1.45C310.29,823.61,312.57,825.11,317.18,828Zm-17.43-.91a6.56,6.56,0,0,0,1.39-2.59c0-.48-.31-1-1-1.49a2.18,2.18,0,0,0-1.91-.47,5.12,5.12,0,0,0-2.12,2l-6.67,9a6.44,6.44,0,0,0-1.38,2.58c0,.52.32,1,1.06,1.57a2.19,2.19,0,0,0,2.13.5,9.08,9.08,0,0,0,2.51-2.7Z" transform="translate(-139.44 -106.31)"/><path d="M326.36,848.47c-5-2.77-7.41-4.2-12.27-7.17l1.21-1.88a11.53,11.53,0,0,1,4.33-4.35c1.49-.74,3.63-.88,6.43-.49a29.23,29.23,0,0,1,9.57,3.57c4.33,2.37,7.34,4.59,9,6.8s2.35,4.18,2,6-1.78,5.13-4.31,10c-3.06,5.94-4.59,8.91-7.66,14.85-5.58-2.71-8.35-4.13-13.82-7.08l1.47-2.58a8.93,8.93,0,0,1-4.64.53,14.92,14.92,0,0,1-5.27-1.93,18.3,18.3,0,0,1-5.86-5.16c-1.47-2-1.28-4.49.54-7.33l1.47-2.31q2-3.15,4.28-3.37c1.51-.14,4.6.5,9.27,1.78,5,1.36,7.79,1.83,8.32,1.61a5.08,5.08,0,0,0,1.83-2.15,6.59,6.59,0,0,0,1.18-3.23,2.11,2.11,0,0,0-1.27-1.59c-.88-.49-1.53-.6-2-.33a9.29,9.29,0,0,0-2.07,2.8Zm1.95,6.28c-2.75-.13-4.5,0-5.25.53a8.14,8.14,0,0,0-2.28,2.7,6.72,6.72,0,0,0-1.23,3.14c.06.6.54,1.16,1.45,1.66a2.42,2.42,0,0,0,2,.41,6.52,6.52,0,0,0,1.93-2.49C326.27,858.32,327,857.13,328.31,854.75Z" transform="translate(-139.44 -106.31)"/><path d="M379.67,872.39c-5.35-1.94-8-3-13.28-5.1.61-1.41.91-2.11,1.53-3.52a5.32,5.32,0,0,0,.64-2.67,1.92,1.92,0,0,0-1.34-1.32,2,2,0,0,0-1.85-.09,5.7,5.7,0,0,0-1.55,2.39l-6.43,14.3a4.17,4.17,0,0,0-.45,2.71,2.38,2.38,0,0,0,1.54,1.6,2.35,2.35,0,0,0,2.37,0,7.59,7.59,0,0,0,1.91-3l1.57-3.63c5.09,2.05,7.65,3,12.8,4.9a34.56,34.56,0,0,1-2.58,5.41,8.22,8.22,0,0,1-3.95,2.9,14.08,14.08,0,0,1-6.6.86,29.32,29.32,0,0,1-8.66-2.33,29,29,0,0,1-9.21-5.56,9.92,9.92,0,0,1-3.24-6c-.2-2,.44-4.51,1.89-7.41l4.23-8.46a13.36,13.36,0,0,1,4-5.19c1.39-.94,3.55-1.34,6.48-1.27a27.24,27.24,0,0,1,9.66,2.33,26.89,26.89,0,0,1,8.39,5.16c2.1,2,3.28,3.93,3.5,5.83A15.54,15.54,0,0,1,379.67,872.39Z" transform="translate(-139.44 -106.31)"/><path d="M404.83,859.87c-.65,2-1,3-1.64,5-5.71-1.73-8.55-2.65-14.18-4.62l1.85-4.94C396.41,857.25,399.21,858.16,404.83,859.87Zm-2.27,6.94-10.32,31.52c-6.28-1.91-9.41-2.92-15.61-5.09l11.67-31.08C394,864.13,396.82,865.07,402.56,866.81Z" transform="translate(-139.44 -106.31)"/><path d="M437.23,887.37c-.67,3.17-1,4.76-1.67,7.93a22.71,22.71,0,0,1-2,6.28,8.66,8.66,0,0,1-3.77,3.21,15,15,0,0,1-6.43,1.37,33.73,33.73,0,0,1-8.38-1,41.36,41.36,0,0,1-8.5-2.91,13.55,13.55,0,0,1-4.86-3.62,8,8,0,0,1-1.71-4.22,17.56,17.56,0,0,1,1.07-6.28c1-3.25,1.52-4.87,2.53-8.11a15.14,15.14,0,0,1,3.56-6.49,10.81,10.81,0,0,1,6.25-2.6,27.13,27.13,0,0,1,9.72.87,33.2,33.2,0,0,1,8,2.87,15.09,15.09,0,0,1,4.75,3.69,8.92,8.92,0,0,1,1.89,3.79A14.23,14.23,0,0,1,437.23,887.37Zm-14.11-5.58a7.64,7.64,0,0,0,.4-3.2c-.15-.49-.65-.83-1.51-1a2,2,0,0,0-1.88.23,7,7,0,0,0-1.25,3L415,895.22a6.29,6.29,0,0,0-.34,3.06c.18.54.71.91,1.59,1.12a2.12,2.12,0,0,0,2-.2,5.61,5.61,0,0,0,1.13-2.6C420.86,890.68,421.61,887.72,423.12,881.79Z" transform="translate(-139.44 -106.31)"/><path d="M459,879.24c-.29,1.19-.43,1.78-.71,3a10.4,10.4,0,0,1,4.26-2.17,14.75,14.75,0,0,1,5.37-.25,13.83,13.83,0,0,1,6,1.87,5.9,5.9,0,0,1,2.75,3.36,19.23,19.23,0,0,1,.08,6.22c-.91,9.22-1.37,13.83-2.29,23.06-6.35-.58-9.53-.93-15.86-1.75l3.2-22.68a14.52,14.52,0,0,0,.26-4.16c-.15-.52-.72-.85-1.71-1s-1.74,0-2.09.58a14.7,14.7,0,0,0-1.1,4.49c-1.37,8.83-2.05,13.25-3.41,22.09-6.32-.89-9.48-1.4-15.76-2.54q3.21-16.23,6.4-32.47C450.19,877.94,453.12,878.41,459,879.24Z" transform="translate(-139.44 -106.31)"/><path d="M495.1,895.4c-5.67-.25-8.51-.43-14.16-.87.07-.89.11-1.33.19-2.21a11.25,11.25,0,0,1,1.81-5.79c1-1.32,2.8-2.41,5.45-3.31a28.93,28.93,0,0,1,10.12-1.1c4.93.18,8.62.83,11.13,2s4,2.69,4.55,4.44.81,5.35.85,10.81l.12,16.59c-6.22,0-9.32,0-15.53-.19,0-1.18.05-1.76.09-2.94a8.7,8.7,0,0,1-3.85,2.52,14.77,14.77,0,0,1-5.56.63,18.5,18.5,0,0,1-7.57-1.95c-2.24-1.15-3.2-3.4-2.91-6.72.09-1.09.14-1.63.23-2.71.21-2.46,1-4.09,2.21-4.9s4.29-1.61,9-2.57c5.06-1,7.74-1.83,8.11-2.27a4.82,4.82,0,0,0,.61-2.72,6.53,6.53,0,0,0-.45-3.39,2.19,2.19,0,0,0-1.86-.85c-1,0-1.63.16-1.9.58a9.5,9.5,0,0,0-.53,3.41C495.2,893.32,495.16,894,495.1,895.4Zm4.63,4.71c-2.49,1.1-4,2-4.4,2.8a8,8,0,0,0-.75,3.41,6.63,6.63,0,0,0,.37,3.33,3.36,3.36,0,0,0,4,.31,6.18,6.18,0,0,0,.56-3.06C499.59,904.18,499.64,902.82,499.73,900.11Z" transform="translate(-139.44 -106.31)"/><path d="M534.49,875.06l2.58,40.23c-6.56.39-9.85.52-16.42.65q-.43-20.16-.86-40.31C525.67,875.52,528.62,875.4,534.49,875.06Z" transform="translate(-139.44 -106.31)"/><path d="M584.45,868.73l8.43,39.49c-6.26,1.23-9.41,1.79-15.71,2.77-.17-.94-.25-1.42-.41-2.36a16.88,16.88,0,0,1-4.38,2.93,17.53,17.53,0,0,1-5.14,1.47,15.18,15.18,0,0,1-6.55-.43,6.63,6.63,0,0,1-3.8-2.45,13.34,13.34,0,0,1-1.37-5.17c-.71-6.14-1.06-9.22-1.77-15.36a14.5,14.5,0,0,1,.09-5.45,6.24,6.24,0,0,1,2.89-3.14,14.09,14.09,0,0,1,5.82-1.94,18,18,0,0,1,5,0,14.33,14.33,0,0,1,4.39,1.38c-.63-3.69-1-5.54-1.58-9.24C576,870.32,578.84,869.83,584.45,868.73ZM573,886.59a4.64,4.64,0,0,0-.87-2.34,2.19,2.19,0,0,0-1.89-.34,2.22,2.22,0,0,0-1.67.82,4.35,4.35,0,0,0-.07,2.54c1,6.4,1.51,9.6,2.52,16a5,5,0,0,0,.88,2.56,2.13,2.13,0,0,0,1.87.36,2.32,2.32,0,0,0,1.88-1c.26-.52.23-1.69-.08-3.51Z" transform="translate(-139.44 -106.31)"/><path d="M626.67,877.65c1,3.09,1.53,4.63,2.54,7.71a22.12,22.12,0,0,1,1.39,6.44,8.12,8.12,0,0,1-1.67,4.57,14.35,14.35,0,0,1-4.93,4.2,33.87,33.87,0,0,1-7.86,3,42.52,42.52,0,0,1-8.9,1.43,14.31,14.31,0,0,1-6.08-.9,8.46,8.46,0,0,1-3.62-2.9,17.76,17.76,0,0,1-2.24-6c-.75-3.31-1.13-5-1.88-8.27a14.56,14.56,0,0,1-.17-7.33,10.21,10.21,0,0,1,4.14-5.19,27,27,0,0,1,8.94-3.78,34.25,34.25,0,0,1,8.42-1.2,15.57,15.57,0,0,1,6,1,9.45,9.45,0,0,1,3.57,2.42A14.76,14.76,0,0,1,626.67,877.65Zm-15.16,1.71a7.78,7.78,0,0,0-1.27-3,1.91,1.91,0,0,0-1.85-.21q-1.27.33-1.53,1.08a7.05,7.05,0,0,0,.41,3.2l3.93,14.43a6.46,6.46,0,0,0,1.25,2.84,2.09,2.09,0,0,0,2,.24c.91-.24,1.44-.6,1.61-1.09a5.62,5.62,0,0,0-.33-2.81Z" transform="translate(-139.44 -106.31)"/><path d="M675.28,860c-5.16,2.4-7.76,3.55-13,5.76l-1.57-3.5a5.43,5.43,0,0,0-1.55-2.3,2.05,2.05,0,0,0-1.92,0c-.79.33-1.23.74-1.34,1.23a5.66,5.66,0,0,0,.71,2.74l6.23,14.39a4.36,4.36,0,0,0,1.71,2.18,2.51,2.51,0,0,0,2.27,0c1-.4,1.52-1,1.61-1.67a7.36,7.36,0,0,0-.92-3.42l-1.63-3.61c5-2.13,7.56-3.24,12.53-5.56a32.92,32.92,0,0,1,2.25,5.55,7.73,7.73,0,0,1-.57,4.76,13.34,13.34,0,0,1-3.92,5.21,29,29,0,0,1-7.74,4.45,29.64,29.64,0,0,1-10.51,2.58,10.66,10.66,0,0,1-6.72-1.89q-2.48-1.9-4.21-6.44c-1.36-3.52-2-5.28-3.39-8.8a12.88,12.88,0,0,1-1.13-6.38c.26-1.62,1.45-3.41,3.53-5.41a26.63,26.63,0,0,1,8.4-5.13,27.7,27.7,0,0,1,9.67-2.3c2.94-.08,5.2.43,6.78,1.58A15.93,15.93,0,0,1,675.28,860Z" transform="translate(-139.44 -106.31)"/><path d="M711.94,845.68c-6.79,4.11-10.24,6.07-17.24,9.8l3.53,6.28a5.43,5.43,0,0,0,1.88,2.3,2.39,2.39,0,0,0,2-.35c1.05-.57,1.6-1.21,1.67-1.9a6.38,6.38,0,0,0-1.16-3.19l-2.21-3.8c5.12-2.82,7.65-4.29,12.65-7.32l1.32,2.08a14.5,14.5,0,0,1,2,4.33,8.6,8.6,0,0,1-.55,4.45,13.91,13.91,0,0,1-3.44,5.28,30.66,30.66,0,0,1-7.11,5A35.27,35.27,0,0,1,697,872a15.92,15.92,0,0,1-6.55.44,9.11,9.11,0,0,1-4.29-1.87,15.28,15.28,0,0,1-3.3-4.69c-1.76-3.46-2.64-5.19-4.41-8.65a12,12,0,0,1-1.57-6.89,10.71,10.71,0,0,1,3.22-5.91,29,29,0,0,1,7.23-5.28,29.89,29.89,0,0,1,9.68-3.55,12,12,0,0,1,7.14.79,14.78,14.78,0,0,1,5.43,5.51Zm-16,3-1.22-2.11a8.54,8.54,0,0,0-2-2.7,1.72,1.72,0,0,0-1.82.14c-.91.49-1.36,1-1.37,1.46a9.37,9.37,0,0,0,1.37,3.18c.48.85.72,1.27,1.19,2.12C693.6,849.92,694.37,849.5,695.92,848.66Z" transform="translate(-139.44 -106.31)"/><path d="M719.21,820.41c.64,1.05.95,1.58,1.58,2.64a10.22,10.22,0,0,1,1.6-4.48,15.05,15.05,0,0,1,3.78-3.84,14.2,14.2,0,0,1,5.72-2.71,6.14,6.14,0,0,1,4.39.54,19.78,19.78,0,0,1,4.46,4.46l14.63,18.3c-5.09,4-7.68,5.87-12.92,9.59l-13.68-18.66a14.59,14.59,0,0,0-2.76-3.19q-.72-.42-2,.45c-.87.6-1.24,1.21-1.13,1.84a15,15,0,0,0,2.36,4l13.12,18.37c-5.29,3.64-8,5.39-13.4,8.79l-18.25-27.93C711.81,825.43,714.3,823.79,719.21,820.41Z" transform="translate(-139.44 -106.31)"/><path d="M747.42,792.71c1.4,1.57,2.11,2.35,3.52,3.92,1.2-1.06,1.79-1.6,3-2.68l3.59,3.9c-1.21,1.09-1.82,1.64-3,2.71l12,13.31c1.47,1.64,2.42,2.43,2.86,2.38s1.63-.93,3.56-2.69c1.47,1.58,2.2,2.38,3.66,4-1.94,1.77-2.91,2.64-4.88,4.36a61.8,61.8,0,0,1-6.18,4.92,10.51,10.51,0,0,1-4.05,1.62,4.56,4.56,0,0,1-3.26-.43,27.45,27.45,0,0,1-4.37-4.61L743,810.29c-1,.81-1.51,1.21-2.52,2l-3.33-4.11,2.48-2-3.35-4.06C740.78,798.48,743,796.6,747.42,792.71Z" transform="translate(-139.44 -106.31)"/><path d="M792.38,778.35c-5.39,6.16-8.17,9.14-13.87,14.91l5.16,5.07a5.44,5.44,0,0,0,2.45,1.69,2.46,2.46,0,0,0,1.86-1,2.85,2.85,0,0,0,1.08-2.37,6.26,6.26,0,0,0-2-2.77l-3.19-3c4.14-4.33,6.16-6.54,10.13-11.08l1.86,1.64A14.2,14.2,0,0,1,799,785a9.06,9.06,0,0,1,.71,4.55,14.56,14.56,0,0,1-1.84,6.24,32.11,32.11,0,0,1-5.43,7.12,36.4,36.4,0,0,1-7.12,5.81,16.27,16.27,0,0,1-6.19,2.4,8.81,8.81,0,0,1-4.66-.56A15.12,15.12,0,0,1,770,807l-6.65-7.12a12,12,0,0,1-3.44-6.25,11.17,11.17,0,0,1,1.45-6.73,30.58,30.58,0,0,1,5.49-7.36,31.48,31.48,0,0,1,8.34-6.44,11.93,11.93,0,0,1,7.09-1.43,14.32,14.32,0,0,1,6.77,3.73Zm-14.6,7.86-1.76-1.7a8.35,8.35,0,0,0-2.71-2,1.77,1.77,0,0,0-1.72.69c-.73.75-1,1.36-.91,1.84a9.2,9.2,0,0,0,2.21,2.7l1.74,1.72C775.9,788.15,776.53,787.51,777.78,786.21Z" transform="translate(-139.44 -106.31)"/><path d="M792.31,751.15l2.26,2.12a11,11,0,0,1,.29-4.95,16.22,16.22,0,0,1,2.55-5,15.21,15.21,0,0,1,4.74-4.55,6.06,6.06,0,0,1,4.38-.89,18.55,18.55,0,0,1,5.54,3l19.19,13.42c-3.78,5.6-5.73,8.34-9.73,13.69l-18.39-14.07a14,14,0,0,0-3.55-2.28c-.53-.12-1.12.23-1.75,1.07s-.85,1.6-.57,2.18a14.41,14.41,0,0,0,3.4,3.21l17.76,14c-4.07,5.28-6.16,7.86-10.44,12.9l-25.38-21.78C786.59,758.47,788.53,756.07,792.31,751.15Z" transform="translate(-139.44 -106.31)"/><path d="M825.16,725.67c-3.11,5.24-4.71,7.81-8,12.86l-1.86-1.26a11.19,11.19,0,0,1-4.19-4.52c-.66-1.56-.68-3.79-.12-6.72a33.5,33.5,0,0,1,4.2-10.08c2.66-4.59,5.1-7.83,7.45-9.64s4.4-2.58,6.21-2.24,5.13,1.83,10,4.46l14.71,8c-3.09,6.05-4.7,9-8,14.84L843,729.82a9.59,9.59,0,0,1,.27,4.9,17,17,0,0,1-2.28,5.56,20.28,20.28,0,0,1-5.59,6.14c-2.17,1.53-4.65,1.32-7.44-.57l-2.27-1.55q-3.1-2.1-3.19-4.46c-.07-1.57.77-4.78,2.34-9.7,1.68-5.25,2.33-8.22,2.13-8.77a4.74,4.74,0,0,0-2.09-1.92c-1.5-.9-2.57-1.31-3.23-1.23a2.41,2.41,0,0,0-1.69,1.35c-.55.94-.7,1.63-.46,2.09a9,9,0,0,0,2.74,2.16Zm-10.78-25.73c0,5.8,0,8.7-.23,14.52-1.57,2.72-2.37,4.07-4,6.73-.89-3.77-1.36-5.65-2.35-9.38C810.52,707.15,811.84,704.78,814.38,699.94Zm17.3,23.64c-.3,2.9-.23,4.75.23,5.54a7.8,7.8,0,0,0,2.63,2.38,6.31,6.31,0,0,0,3.13,1.28c.62-.06,1.21-.57,1.77-1.54a2.71,2.71,0,0,0,.54-2.1c-.18-.48-1-1.16-2.42-2Z" transform="translate(-139.44 -106.31)"/><path d="M833.45,681l3.71,2.45c-1.89-3.53-2-7.36-.54-11.64l10.74,4.66a24.32,24.32,0,0,0-1.91,6.62,4.19,4.19,0,0,0,.85,3.35,23.15,23.15,0,0,0,5.4,3.07l11.91,5.56c-2.83,6.54-4.31,9.75-7.4,16l-29.52-15.44C829.51,689.93,830.86,687,833.45,681Z" transform="translate(-139.44 -106.31)"/><path d="M837.47,650l5,1.81c-2.18,6.54-3.34,9.76-5.78,16.07l-4.87-2.06C834.19,659.59,835.33,656.42,837.47,650Zm6.86,2.51,31.19,11.38c-2.4,7.2-3.68,10.74-6.37,17.68l-30.63-12.91C841,662.3,842.14,659.07,844.33,652.49Z" transform="translate(-139.44 -106.31)"/><path d="M867.34,611.26l7.91,1.78a18.61,18.61,0,0,1,6.21,2.27,9.08,9.08,0,0,1,3,4.45,20.06,20.06,0,0,1,1,7.67,46.51,46.51,0,0,1-1.56,10,55,55,0,0,1-3.49,10,17.41,17.41,0,0,1-4,5.71,8.17,8.17,0,0,1-4.4,2,15.42,15.42,0,0,1-6.29-1.13l-8-2.79a13.47,13.47,0,0,1-6.31-4c-1.3-1.65-2-4-2.19-7.18a38,38,0,0,1,1.52-11.39,49.74,49.74,0,0,1,3.38-9.53,20.35,20.35,0,0,1,4-5.8,9.38,9.38,0,0,1,3.92-2.4A11.83,11.83,0,0,1,867.34,611.26Zm-6.44,17a6.55,6.55,0,0,0-3.21-.39c-.5.19-.88.8-1.14,1.81a2.69,2.69,0,0,0,.1,2.21,6.26,6.26,0,0,0,3,1.41L874,637.55a5.35,5.35,0,0,0,3.08.33c.55-.22,1-.85,1.23-1.9a2.84,2.84,0,0,0-.08-2.31,4.88,4.88,0,0,0-2.56-1.27Z" transform="translate(-139.44 -106.31)"/><path d="M875.55,565.6l6.92.66c-1,10.43-1.62,15.55-3.15,25.58l-6.86-1.13C874,580.87,874.58,575.85,875.55,565.6Z" transform="translate(-139.44 -106.31)"/><path d="M512,859.9a337.14,337.14,0,1,1,238.4-98.75A334.95,334.95,0,0,1,512,859.9Zm0-661.29c-178.73,0-324.15,145.41-324.15,324.14S333.27,846.9,512,846.9,836.14,701.49,836.14,522.75,690.73,198.61,512,198.61Z" transform="translate(-139.44 -106.31)"/></g></svg>