<svg id="Layer_1" data-name="Layer 1" xmlns="http://www.w3.org/2000/svg" viewBox="0 0 197.19 197.2"><defs><style>.cls-1{fill:#fff;}</style></defs><path class="cls-1" d="M99.83,147.78a49.59,49.59,0,1,1,49.58-49.59A49.65,49.65,0,0,1,99.83,147.78Zm0-83.83a34.25,34.25,0,1,0,34.25,34.24A34.28,34.28,0,0,0,99.83,64Z" transform="translate(-1.23 -1.86)"/><circle class="cls-1" cx="153.04" cy="40.9" r="15.01"/><path class="cls-1" d="M169.66,199.06H30A28.81,28.81,0,0,1,1.23,170.28V30.63A28.8,28.8,0,0,1,30,1.86H169.66a28.8,28.8,0,0,1,28.76,28.77V170.28A28.81,28.81,0,0,1,169.66,199.06ZM30,13.12A17.52,17.52,0,0,0,12.5,30.63V170.28A17.52,17.52,0,0,0,30,187.79H169.66a17.52,17.52,0,0,0,17.5-17.51V30.63a17.52,17.52,0,0,0-17.5-17.51Z" transform="translate(-1.23 -1.86)"/></svg>